<?xml version="1.0" standalone="no"?>
<!DOCTYPE svg PUBLIC "-//W3C//DTD SVG 20010904//EN"
 "http://www.w3.org/TR/2001/REC-SVG-20010904/DTD/svg10.dtd">
<svg version="1.0" xmlns="http://www.w3.org/2000/svg"
 width="909.000000pt" height="1280.000000pt" viewBox="0 0 909.000000 1280.000000"
 preserveAspectRatio="xMidYMid meet">
<metadata>
Created by potrace 1.15, written by Peter Selinger 2001-2017
</metadata>
<g transform="translate(0.000000,1280.000000) scale(0.100000,-0.100000)"
fill="#000000" stroke="none">
<path d="M1910 12420 l0 -380 2635 0 2635 0 0 380 0 380 -2635 0 -2635 0 0
-380z"/>
<path d="M3188 11643 l-1278 -3 0 -420 0 -420 574 0 c316 0 577 -4 580 -8 3
-4 0 -69 -5 -143 -18 -256 -65 -441 -170 -668 -66 -141 -147 -259 -252 -368
-188 -195 -392 -293 -612 -295 -127 -1 -189 23 -330 127 -20 14 -21 9 -88
-368 -65 -367 -185 -1044 -342 -1932 -66 -374 -307 -1734 -386 -2179 -34 -191
-162 -919 -369 -2086 -77 -437 -175 -986 -216 -1220 -41 -234 -78 -435 -81
-447 l-5 -23 1301 0 1300 0 10 38 c5 20 100 395 210 832 1085 4312 1513 6005
1517 6009 2 2 4 2 4 -1 0 -3 275 -1096 610 -2429 336 -1333 721 -2863 856
-3399 135 -536 250 -992 255 -1012 l10 -38 1300 0 1301 0 -5 23 c-3 12 -40
213 -81 447 -41 234 -139 783 -216 1220 -77 437 -154 872 -171 965 -16 94 -93
526 -170 960 -77 435 -185 1044 -240 1355 -55 311 -133 754 -174 985 -146 821
-276 1555 -342 1932 -67 377 -68 382 -88 368 -141 -104 -203 -128 -330 -127
-220 2 -424 100 -612 295 -200 207 -334 484 -398 824 -16 84 -37 342 -29 355
3 4 264 8 580 8 l574 0 0 420 0 420 -1232 0 c-678 0 -1289 2 -1358 3 -69 2
-700 2 -1402 0z"/>
<path d="M1819 10143 c-87 -488 -89 -442 18 -495 54 -26 74 -31 131 -30 307 6
573 306 647 729 8 47 15 116 15 153 l0 68 -368 2 -368 1 -75 -428z"/>
<path d="M6436 10561 c-9 -14 14 -213 34 -296 45 -191 124 -338 250 -466 70
-71 100 -94 170 -127 161 -77 290 -73 406 13 l30 23 -75 431 -76 432 -367 -2
c-203 0 -370 -4 -372 -8z"/>
<path d="M135 758 c-2 -7 -31 -170 -65 -363 -34 -192 -64 -360 -67 -372 l-5
-23 1256 0 1255 0 10 38 c21 80 181 722 181 727 0 3 -576 5 -1280 5 -1016 0
-1281 -3 -1285 -12z"/>
<path d="M6390 765 c0 -5 160 -647 181 -727 l10 -38 1255 0 1255 0 -7 34 c-3
19 -34 192 -68 383 l-61 348 -1283 3 c-705 1 -1282 0 -1282 -3z"/>
</g>
</svg>
