<?xml version="1.0" standalone="no"?>
<!DOCTYPE svg PUBLIC "-//W3C//DTD SVG 20010904//EN"
 "http://www.w3.org/TR/2001/REC-SVG-20010904/DTD/svg10.dtd">
<svg version="1.0" xmlns="http://www.w3.org/2000/svg"
 width="1280.000000pt" height="750.000000pt" viewBox="0 0 1280.000000 750.000000"
 preserveAspectRatio="xMidYMid meet">
<g transform="translate(0.000000,750.000000) scale(0.100000,-0.100000)"
fill="#000000" stroke="none">
<path d="M3538 7469 c-143 -73 -307 -288 -308 -402 -1 -52 17 -51 -487 -50
-702 1 -1174 29 -1846 109 -120 15 -220 25 -222 23 -1 -2 1 -83 7 -179 14
-242 4 -1129 -16 -1410 -36 -512 -70 -817 -147 -1320 -75 -490 -125 -751 -219
-1135 -33 -132 -66 -283 -75 -335 -29 -184 -38 -459 -25 -837 6 -194 8 -358 5
-364 -5 -7 -23 -9 -51 -4 -74 11 -77 3 -97 -246 -9 -118 -21 -290 -27 -384 -6
-93 -15 -211 -20 -262 -12 -109 -12 -258 -1 -327 10 -59 29 -77 141 -135 190
-99 503 -154 1030 -181 113 -6 266 -15 340 -20 173 -13 446 -13 770 0 140 5
435 14 655 20 220 6 531 15 690 20 1708 59 2153 70 2800 70 915 0 1749 19
2295 51 633 37 990 75 1470 155 1059 178 2097 452 2424 639 108 62 130 89 156
191 22 89 25 148 10 238 -5 33 -19 123 -31 200 -25 165 -89 428 -122 500 -14
28 -58 97 -98 153 -41 56 -83 117 -94 135 -19 29 -25 33 -61 30 -37 -3 -42 0
-78 48 -62 82 -157 154 -262 198 -188 79 -730 98 -1329 46 l-200 -17 -105 27
c-57 16 -183 45 -280 67 -160 35 -177 41 -200 68 -35 42 -119 77 -229 96 -105
19 -141 15 -141 -15 0 -26 -14 -25 -128 2 l-93 22 -44 62 c-73 102 -164 170
-295 220 -69 26 -85 28 -215 28 -122 1 -147 -2 -195 -22 -69 -28 -84 -28 -164
2 -51 18 -76 35 -111 74 -44 49 -171 142 -194 142 -6 0 -21 17 -35 38 -37 59
-171 121 -300 138 -48 7 -49 7 -42 -17 37 -125 19 -129 -169 -43 -128 59 -150
73 -175 108 -15 23 -38 50 -50 61 -12 11 -28 34 -35 51 -18 43 -57 68 -187
120 -106 43 -112 44 -130 27 -41 -37 -86 -16 -285 131 -46 33 -83 66 -83 73 0
7 11 20 25 29 61 40 -2 134 -147 218 -47 28 -49 28 -95 12 -26 -9 -54 -16 -64
-16 -36 0 -409 440 -409 483 0 8 18 26 40 41 47 31 50 49 18 114 -27 53 -129
167 -169 188 -25 12 -34 12 -71 -1 -24 -8 -50 -15 -58 -15 -8 0 -64 68 -124
151 -93 129 -109 157 -111 192 -4 100 -164 317 -233 317 -15 0 -43 32 -103
118 -46 64 -125 174 -176 245 -107 147 -126 199 -79 217 15 5 41 10 57 10 22
0 29 5 29 19 0 53 -92 202 -166 271 -43 40 -49 42 -90 36 -40 -5 -50 -2 -93
29 -27 20 -82 51 -122 70 -46 22 -106 64 -158 110 -115 101 -119 103 -232 91
l-93 -9 -23 29 c-12 16 -49 63 -82 104 -34 41 -89 114 -123 162 -48 67 -74 93
-111 113 -27 14 -54 25 -60 25 -7 -1 -38 -14 -69 -31z"/>
</g>
</svg>
