<?xml version="1.0" standalone="no"?>
<!DOCTYPE svg PUBLIC "-//W3C//DTD SVG 20010904//EN"
 "http://www.w3.org/TR/2001/REC-SVG-20010904/DTD/svg10.dtd">
<svg version="1.0" xmlns="http://www.w3.org/2000/svg"
 width="500.000000pt" height="500.000000pt" viewBox="0 0 1280.000000 1138.000000"
 preserveAspectRatio="xMidYMid meet">
<g transform="translate(0.000000,1138.000000) scale(0.100000,-0.100000)"
fill="#000000" stroke="none">
<path d="M6222 11355 c-269 -51 -550 -152 -822 -298 -63 -33 -132 -69 -152
-80 -26 -13 -54 -44 -94 -103 -79 -119 -82 -121 -199 -99 -60 12 -115 16 -152
12 -57 -6 -544 -149 -923 -271 -580 -188 -978 -362 -1273 -556 -170 -111 -262
-186 -374 -304 -288 -300 -455 -711 -658 -1616 -131 -585 -267 -950 -665
-1785 -290 -609 -386 -833 -491 -1145 -170 -511 -243 -967 -243 -1530 1 -687
115 -1391 370 -2280 75 -259 282 -887 319 -965 21 -43 23 -58 15 -79 -14 -39
21 -72 86 -80 139 -19 555 105 788 234 121 67 140 87 142 148 1 26 4 101 8
167 4 66 13 561 21 1100 15 948 23 1237 45 1565 80 1161 325 1901 797 2401
100 106 155 112 194 24 11 -25 78 -298 149 -608 199 -870 257 -1090 369 -1401
101 -279 127 -436 118 -715 -8 -259 -43 -430 -172 -836 -76 -239 -99 -342 -89
-400 14 -91 86 -178 170 -205 31 -11 47 -30 24 -30 -5 0 -10 -6 -10 -14 0 -14
105 -41 574 -150 103 -24 191 -49 195 -55 4 -6 52 -15 106 -21 55 -6 156 -22
225 -35 516 -99 1318 -214 1710 -246 314 -25 1003 20 1750 116 306 40 1297
199 1309 210 8 8 -2 12 -88 31 -46 10 -86 24 -88 29 -2 6 17 21 41 33 93 45
97 96 42 502 -91 672 -106 1125 -51 1544 19 144 33 179 107 269 118 145 158
247 277 714 118 457 211 749 256 797 50 54 100 28 211 -112 320 -402 462 -765
568 -1452 88 -571 158 -1567 196 -2815 5 -181 12 -355 15 -386 4 -43 2 -59
-10 -69 -51 -43 16 -116 179 -195 279 -135 671 -227 779 -182 20 9 37 21 37
27 0 17 -27 65 -44 79 -27 23 -18 31 34 31 61 0 111 19 134 51 53 75 312 978
420 1464 153 685 220 1247 220 1835 -1 487 -42 849 -146 1265 -107 431 -269
827 -567 1390 -446 844 -527 1050 -621 1575 -140 786 -394 1335 -824 1778
-270 277 -547 464 -845 567 -121 41 -216 66 -506 130 -336 75 -524 144 -775
287 -153 87 -236 129 -415 208 -140 62 -153 70 -190 119 -45 58 -90 81 -413
204 -296 114 -521 177 -770 216 -161 26 -175 25 -330 -4z"/>
</g>
</svg>
